<svg xmlns="http://www.w3.org/2000/svg" viewBox="0 0 428.26 265.27"><defs><style>.cls-1{fill:#f5bf5c;stroke:#c45832;stroke-miterlimit:10;stroke-width:6px;}</style></defs><g id="레이어_2" data-name="레이어 2"><g id="레이어_1-2" data-name="레이어 1"><path class="cls-1" d="M11.05,145.44S38.3,6.4,193.15,3.07c59.67-1.28,122,14.24,170.46,50,23.77,17.55,44.1,41.07,54.47,69,10,27,10.25,61.35-3.79,87.15a62.51,62.51,0,0,1-11.2,14.68c-8.62,8.44-19.3,14.56-30.43,19.23-34.31,14.38-71.93,14.8-108.55,14.42-38.92-.39-77.87-3-116.79-1-1.56.08-3.11.16-4.67.26-30.3,1.81-65.56,11.42-94.58-.33-18.86-7.65-33.91-22.63-40.64-41.95-8.06-23.11-4.08-48.67,3.62-71.3"/></g></g></svg>