<svg xmlns="http://www.w3.org/2000/svg" viewBox="0 0 249.44 203.11"><defs><style>.cls-1{fill:#f5bf5c;}.cls-2{fill:#cd5a32;}</style></defs><g id="레이어_2" data-name="레이어 2"><g id="레이어_1-2" data-name="레이어 1"><path class="cls-1" d="M22.89,200.11H20.82A18,18,0,0,1,3,181.93,18.06,18.06,0,0,1,21,164.1H23c54.78,0,102.86-24.49,142.93-72.8C197,53.8,211.4,15.2,211.54,14.81A18.08,18.08,0,0,1,228.45,3a18,18,0,0,1,16.91,24.15c-.65,1.78-16.24,44-51.14,86.38C147.56,170.17,88.31,200.11,22.89,200.11Z"/><path class="cls-2" d="M228.45,6a15,15,0,0,1,14.09,20.13c-.64,1.75-16.07,43.53-50.64,85.49-46.1,56-104.5,85.49-169,85.49h-2a15,15,0,0,1,.14-30H23c55.72,0,104.57-24.85,145.24-73.88,31.53-38,46-77,46.17-77.38A15,15,0,0,1,228.45,6m0-6h0a21.09,21.09,0,0,0-19.73,13.78c-.14.38-14.47,38.62-45.15,75.62C124.1,137,76.79,161.11,23,161.11H21a21,21,0,0,0-.2,42h2.09c66.35,0,126.39-30.32,173.64-87.67,35.23-42.76,51-85.47,51.65-87.26A21,21,0,0,0,228.45,0Z"/></g></g></svg>